<svg width="360" height="272" viewBox="0 0 360 272" fill="none" xmlns="http://www.w3.org/2000/svg">
<path fill-rule="evenodd" clip-rule="evenodd" d="M96.2925 8.07413L76 8.05825L126.29 196L179.227 84.8326L231.281 196L283.336 8.05825L264.808 8.07413L226.87 143.945L189.814 64.5401L204.813 32.778C204.813 32.778 195.133 0.177918 179.227 1.01588C163.947 1.82085 156.288 32.778 156.288 32.778L170.404 64.5401L131.584 143.945L96.2925 8.07413ZM180.109 43.3654L173.933 31.0134C173.933 31.0134 175.332 20.1179 180.109 20.4261C184.722 20.7237 185.403 31.0134 185.403 31.0134L180.109 43.3654Z" fill="black"/>
<path d="M76 8.05825L76.0004 7.55825L75.3485 7.55774L75.517 8.18749L76 8.05825ZM96.2925 8.07413L96.7764 7.94843L96.6793 7.57443L96.2929 7.57413L96.2925 8.07413ZM126.29 196L125.807 196.129L126.158 197.44L126.741 196.215L126.29 196ZM179.227 84.8326L179.68 84.6206L179.231 83.6616L178.775 84.6176L179.227 84.8326ZM231.281 196L230.829 196.212L231.402 197.437L231.763 196.133L231.281 196ZM283.336 8.05825L283.818 8.19171L283.994 7.55768L283.336 7.55825L283.336 8.05825ZM264.808 8.07413L264.808 7.57413L264.429 7.57446L264.327 7.93966L264.808 8.07413ZM226.87 143.945L226.417 144.157L226.988 145.381L227.352 144.08L226.87 143.945ZM189.814 64.5401L189.362 64.3266L189.262 64.5389L189.361 64.7516L189.814 64.5401ZM204.813 32.778L205.265 32.9915L205.347 32.8188L205.292 32.6357L204.813 32.778ZM179.227 1.01588L179.201 0.516574L179.227 1.01588ZM156.288 32.778L155.802 32.6579L155.761 32.8244L155.831 32.9811L156.288 32.778ZM170.404 64.5401L170.853 64.7597L170.956 64.5502L170.861 64.337L170.404 64.5401ZM131.584 143.945L131.1 144.071L131.439 145.379L132.033 144.165L131.584 143.945ZM173.933 31.0134L173.437 30.9497L173.418 31.1008L173.486 31.237L173.933 31.0134ZM180.109 43.3654L179.662 43.589L180.144 44.5532L180.569 43.5623L180.109 43.3654ZM180.109 20.4261L180.141 19.9271L180.141 19.9271L180.109 20.4261ZM185.403 31.0134L185.862 31.2104L185.91 31.1001L185.902 30.9804L185.403 31.0134ZM75.9996 8.55825L96.2921 8.57413L96.2929 7.57413L76.0004 7.55825L75.9996 8.55825ZM126.773 195.871L76.483 7.929L75.517 8.18749L125.807 196.129L126.773 195.871ZM178.775 84.6176L125.839 195.785L126.741 196.215L179.678 85.0475L178.775 84.6176ZM231.734 195.788L179.68 84.6206L178.774 85.0446L230.829 196.212L231.734 195.788ZM282.854 7.92479L230.8 195.867L231.763 196.133L283.818 8.19171L282.854 7.92479ZM264.809 8.57413L283.336 8.55825L283.336 7.55825L264.808 7.57413L264.809 8.57413ZM227.352 144.08L265.29 8.2086L264.327 7.93966L226.388 143.811L227.352 144.08ZM189.361 64.7516L226.417 144.157L227.323 143.734L190.267 64.3287L189.361 64.7516ZM204.361 32.5645L189.362 64.3266L190.266 64.7536L205.265 32.9915L204.361 32.5645ZM179.253 1.51519C183.044 1.3155 186.504 3.10355 189.594 5.99051C192.683 8.87761 195.354 12.8225 197.546 16.823C199.736 20.819 201.434 24.8451 202.585 27.8749C203.16 29.389 203.598 30.6525 203.892 31.5366C204.038 31.9786 204.149 32.3256 204.223 32.5617C204.26 32.6797 204.288 32.7699 204.307 32.8303C204.316 32.8606 204.323 32.8834 204.327 32.8984C204.329 32.906 204.331 32.9116 204.332 32.9153C204.333 32.9171 204.333 32.9184 204.333 32.9193C204.334 32.9197 204.334 32.92 204.334 32.9202C204.334 32.9203 204.334 32.9203 204.813 32.778C205.292 32.6357 205.292 32.6354 205.292 32.6351C205.292 32.6348 205.292 32.6343 205.292 32.6338C205.291 32.6326 205.291 32.631 205.29 32.6289C205.289 32.6246 205.287 32.6184 205.285 32.6103C205.28 32.5941 205.273 32.5701 205.263 32.5387C205.244 32.4758 205.215 32.3831 205.178 32.2625C205.102 32.0214 204.989 31.6689 204.84 31.2211C204.543 30.3257 204.1 29.0488 203.519 27.5198C202.358 24.4632 200.642 20.3917 198.423 16.3424C196.207 12.2976 193.476 8.24963 190.276 5.25989C187.077 2.27001 183.363 0.297279 179.201 0.516574L179.253 1.51519ZM156.288 32.778C156.773 32.8981 156.773 32.8981 156.773 32.898C156.773 32.8978 156.773 32.8975 156.773 32.8971C156.773 32.8963 156.774 32.8951 156.774 32.8933C156.775 32.8899 156.776 32.8846 156.778 32.8774C156.782 32.8631 156.787 32.8415 156.794 32.8128C156.809 32.7555 156.831 32.6698 156.861 32.5576C156.92 32.3333 157.009 32.0031 157.128 31.582C157.365 30.7398 157.722 29.5341 158.198 28.0843C159.151 25.1832 160.577 21.3111 162.477 17.418C164.378 13.5209 166.742 9.62627 169.559 6.66282C172.377 3.69861 175.609 1.7072 179.253 1.51519L179.201 0.516574C175.206 0.727046 171.75 2.90714 168.834 5.9738C165.918 9.0412 163.502 13.0368 161.578 16.9796C159.653 20.9264 158.209 24.8439 157.248 27.7724C156.767 29.2374 156.406 30.4566 156.165 31.3105C156.045 31.7374 155.954 32.0731 155.894 32.3027C155.864 32.4174 155.841 32.5057 155.826 32.5655C155.818 32.5954 155.812 32.6182 155.808 32.6337C155.806 32.6414 155.805 32.6473 155.804 32.6514C155.803 32.6534 155.803 32.655 155.803 32.6561C155.803 32.6566 155.802 32.6571 155.802 32.6573C155.802 32.6577 155.802 32.6579 156.288 32.778ZM170.861 64.337L156.744 32.5749L155.831 32.9811L169.947 64.7432L170.861 64.337ZM132.033 144.165L170.853 64.7597L169.955 64.3205L131.135 143.726L132.033 144.165ZM95.8085 8.19983L131.1 144.071L132.068 143.82L96.7764 7.94843L95.8085 8.19983ZM173.486 31.237L179.662 43.589L180.556 43.1418L174.38 30.7898L173.486 31.237ZM180.141 19.9271C178.727 19.8359 177.603 20.5851 176.743 21.6331C175.886 22.6767 175.24 24.0727 174.758 25.4379C174.275 26.8099 173.945 28.1865 173.736 29.2166C173.632 29.7326 173.557 30.1638 173.509 30.4668C173.485 30.6184 173.467 30.738 173.455 30.8203C173.449 30.8614 173.445 30.8932 173.442 30.915C173.44 30.9259 173.439 30.9343 173.439 30.9401C173.438 30.9431 173.438 30.9453 173.438 30.9469C173.438 30.9477 173.437 30.9484 173.437 30.9488C173.437 30.9491 173.437 30.9493 173.437 30.9494C173.437 30.9496 173.437 30.9497 173.933 31.0134C174.429 31.0771 174.429 31.0772 174.429 31.0772C174.429 31.0772 174.429 31.0771 174.429 31.0771C174.429 31.0769 174.429 31.0765 174.429 31.076C174.429 31.075 174.43 31.0733 174.43 31.0709C174.431 31.0663 174.432 31.0591 174.433 31.0494C174.435 31.0299 174.44 31.0006 174.445 30.962C174.456 30.8848 174.473 30.7707 174.496 30.6249C174.543 30.3333 174.615 29.9157 174.717 29.415C174.92 28.4119 175.238 27.0838 175.701 25.7705C176.167 24.4503 176.766 23.1802 177.515 22.2676C178.261 21.3593 179.103 20.8622 180.077 20.925L180.141 19.9271ZM185.403 31.0134C185.902 30.9804 185.902 30.9803 185.902 30.9801C185.902 30.98 185.902 30.9798 185.902 30.9795C185.902 30.9791 185.902 30.9785 185.902 30.9777C185.901 30.9762 185.901 30.974 185.901 30.9712C185.901 30.9657 185.9 30.9577 185.899 30.9473C185.898 30.9266 185.896 30.8965 185.892 30.8574C185.886 30.7794 185.876 30.6659 185.862 30.522C185.834 30.2342 185.789 29.8241 185.72 29.3316C185.582 28.3484 185.349 27.0284 184.967 25.6938C184.586 24.3653 184.05 22.9897 183.291 21.917C182.529 20.8417 181.501 20.0148 180.141 19.9271L180.077 20.925C181.024 20.9861 181.811 21.5571 182.474 22.4948C183.14 23.4351 183.639 24.6878 184.005 25.9689C184.37 27.244 184.595 28.515 184.729 29.4704C184.796 29.9472 184.84 30.3434 184.867 30.6195C184.88 30.7575 184.89 30.8653 184.896 30.9382C184.899 30.9746 184.901 31.0022 184.902 31.0205C184.903 31.0296 184.903 31.0364 184.904 31.0407C184.904 31.0429 184.904 31.0445 184.904 31.0454C184.904 31.0459 184.904 31.0462 184.904 31.0464C184.904 31.0465 184.904 31.0465 184.904 31.0465C184.904 31.0465 184.904 31.0464 185.403 31.0134ZM180.569 43.5623L185.862 31.2104L184.943 30.8165L179.65 43.1684L180.569 43.5623Z" fill="black"/>
<path d="M54.8793 219.38L43.7643 255H37.6543L29.0743 226.725L20.4943 255H14.3843L3.20432 219.38H9.24932L17.4393 249.28L26.2793 219.38H32.3243L40.9693 249.345L49.0293 219.38H54.8793ZM58.5396 237.06C58.5396 233.42 59.2763 230.235 60.7496 227.505C62.223 224.732 64.238 222.587 66.7946 221.07C69.3946 219.553 72.2763 218.795 75.4396 218.795C78.5596 218.795 81.268 219.467 83.5646 220.81C85.8613 222.153 87.573 223.843 88.6996 225.88V219.38H94.6796V255H88.6996V248.37C87.5296 250.45 85.7746 252.183 83.4346 253.57C81.138 254.913 78.4513 255.585 75.3746 255.585C72.2113 255.585 69.3513 254.805 66.7946 253.245C64.238 251.685 62.223 249.497 60.7496 246.68C59.2763 243.863 58.5396 240.657 58.5396 237.06ZM88.6996 237.125C88.6996 234.438 88.158 232.098 87.0746 230.105C85.9913 228.112 84.518 226.595 82.6546 225.555C80.8346 224.472 78.8196 223.93 76.6096 223.93C74.3996 223.93 72.3846 224.45 70.5646 225.49C68.7446 226.53 67.293 228.047 66.2096 230.04C65.1263 232.033 64.5846 234.373 64.5846 237.06C64.5846 239.79 65.1263 242.173 66.2096 244.21C67.293 246.203 68.7446 247.742 70.5646 248.825C72.3846 249.865 74.3996 250.385 76.6096 250.385C78.8196 250.385 80.8346 249.865 82.6546 248.825C84.518 247.742 85.9913 246.203 87.0746 244.21C88.158 242.173 88.6996 239.812 88.6996 237.125ZM122.03 218.73C126.364 218.73 129.874 220.052 132.56 222.695C135.247 225.295 136.59 229.065 136.59 234.005V255H130.74V234.85C130.74 231.297 129.852 228.588 128.075 226.725C126.299 224.818 123.872 223.865 120.795 223.865C117.675 223.865 115.184 224.84 113.32 226.79C111.5 228.74 110.59 231.578 110.59 235.305V255H104.675V219.38H110.59V224.45C111.76 222.63 113.342 221.222 115.335 220.225C117.372 219.228 119.604 218.73 122.03 218.73ZM144.043 237.06C144.043 233.42 144.779 230.235 146.253 227.505C147.726 224.732 149.741 222.587 152.298 221.07C154.898 219.553 157.801 218.795 161.008 218.795C163.781 218.795 166.359 219.445 168.743 220.745C171.126 222.002 172.946 223.67 174.203 225.75V206.9H180.183V255H174.203V248.305C173.033 250.428 171.299 252.183 169.003 253.57C166.706 254.913 164.019 255.585 160.943 255.585C157.779 255.585 154.898 254.805 152.298 253.245C149.741 251.685 147.726 249.497 146.253 246.68C144.779 243.863 144.043 240.657 144.043 237.06ZM174.203 237.125C174.203 234.438 173.661 232.098 172.578 230.105C171.494 228.112 170.021 226.595 168.158 225.555C166.338 224.472 164.323 223.93 162.113 223.93C159.903 223.93 157.888 224.45 156.068 225.49C154.248 226.53 152.796 228.047 151.713 230.04C150.629 232.033 150.088 234.373 150.088 237.06C150.088 239.79 150.629 242.173 151.713 244.21C152.796 246.203 154.248 247.742 156.068 248.825C157.888 249.865 159.903 250.385 162.113 250.385C164.323 250.385 166.338 249.865 168.158 248.825C170.021 247.742 171.494 246.203 172.578 244.21C173.661 242.173 174.203 239.812 174.203 237.125ZM222.678 235.825C222.678 236.952 222.613 238.143 222.483 239.4H194.013C194.23 242.91 195.422 245.662 197.588 247.655C199.798 249.605 202.463 250.58 205.583 250.58C208.14 250.58 210.263 249.995 211.953 248.825C213.687 247.612 214.9 246.008 215.593 244.015H221.963C221.01 247.438 219.103 250.233 216.243 252.4C213.383 254.523 209.83 255.585 205.583 255.585C202.203 255.585 199.17 254.827 196.483 253.31C193.84 251.793 191.76 249.648 190.243 246.875C188.727 244.058 187.968 240.808 187.968 237.125C187.968 233.442 188.705 230.213 190.178 227.44C191.652 224.667 193.71 222.543 196.353 221.07C199.04 219.553 202.117 218.795 205.583 218.795C208.963 218.795 211.953 219.532 214.553 221.005C217.153 222.478 219.147 224.515 220.533 227.115C221.963 229.672 222.678 232.575 222.678 235.825ZM216.568 234.59C216.568 232.337 216.07 230.408 215.073 228.805C214.077 227.158 212.712 225.923 210.978 225.1C209.288 224.233 207.403 223.8 205.323 223.8C202.333 223.8 199.777 224.753 197.653 226.66C195.573 228.567 194.382 231.21 194.078 234.59H216.568ZM236.401 225.165C237.441 223.128 238.914 221.547 240.821 220.42C242.771 219.293 245.133 218.73 247.906 218.73V224.84H246.346C239.716 224.84 236.401 228.437 236.401 235.63V255H230.486V219.38H236.401V225.165ZM261.949 224.255V245.25C261.949 246.983 262.317 248.218 263.054 248.955C263.791 249.648 265.069 249.995 266.889 249.995H271.244V255H265.914C262.621 255 260.151 254.242 258.504 252.725C256.857 251.208 256.034 248.717 256.034 245.25V224.255H251.419V219.38H256.034V210.41H261.949V219.38H271.244V224.255H261.949ZM284.326 225.165C285.366 223.128 286.839 221.547 288.746 220.42C290.696 219.293 293.057 218.73 295.831 218.73V224.84H294.271C287.641 224.84 284.326 228.437 284.326 235.63V255H278.411V219.38H284.326V225.165ZM305.714 213.595C304.587 213.595 303.634 213.205 302.854 212.425C302.074 211.645 301.684 210.692 301.684 209.565C301.684 208.438 302.074 207.485 302.854 206.705C303.634 205.925 304.587 205.535 305.714 205.535C306.797 205.535 307.707 205.925 308.444 206.705C309.224 207.485 309.614 208.438 309.614 209.565C309.614 210.692 309.224 211.645 308.444 212.425C307.707 213.205 306.797 213.595 305.714 213.595ZM308.574 219.38V255H302.659V219.38H308.574ZM324.57 225.945C325.74 223.908 327.473 222.218 329.77 220.875C332.11 219.488 334.818 218.795 337.895 218.795C341.058 218.795 343.918 219.553 346.475 221.07C349.075 222.587 351.112 224.732 352.585 227.505C354.058 230.235 354.795 233.42 354.795 237.06C354.795 240.657 354.058 243.863 352.585 246.68C351.112 249.497 349.075 251.685 346.475 253.245C343.918 254.805 341.058 255.585 337.895 255.585C334.862 255.585 332.175 254.913 329.835 253.57C327.538 252.183 325.783 250.472 324.57 248.435V271.9H318.655V219.38H324.57V225.945ZM348.75 237.06C348.75 234.373 348.208 232.033 347.125 230.04C346.042 228.047 344.568 226.53 342.705 225.49C340.885 224.45 338.87 223.93 336.66 223.93C334.493 223.93 332.478 224.472 330.615 225.555C328.795 226.595 327.322 228.133 326.195 230.17C325.112 232.163 324.57 234.482 324.57 237.125C324.57 239.812 325.112 242.173 326.195 244.21C327.322 246.203 328.795 247.742 330.615 248.825C332.478 249.865 334.493 250.385 336.66 250.385C338.87 250.385 340.885 249.865 342.705 248.825C344.568 247.742 346.042 246.203 347.125 244.21C348.208 242.173 348.75 239.79 348.75 237.06Z" fill="black"/>
</svg>
