<svg width="352" height="67" viewBox="0 0 352 67" fill="none" xmlns="http://www.w3.org/2000/svg">
<path d="M51.8793 14.38L40.7643 50H34.6543L26.0743 21.725L17.4943 50H11.3843L0.204316 14.38H6.24932L14.4393 44.28L23.2793 14.38H29.3243L37.9693 44.345L46.0293 14.38H51.8793ZM55.5396 32.06C55.5396 28.42 56.2763 25.235 57.7496 22.505C59.223 19.7317 61.238 17.5867 63.7946 16.07C66.3946 14.5533 69.2763 13.795 72.4396 13.795C75.5596 13.795 78.268 14.4667 80.5646 15.81C82.8613 17.1533 84.573 18.8433 85.6996 20.88V14.38H91.6796V50H85.6996V43.37C84.5296 45.45 82.7746 47.1833 80.4346 48.57C78.138 49.9133 75.4513 50.585 72.3746 50.585C69.2113 50.585 66.3513 49.805 63.7946 48.245C61.238 46.685 59.223 44.4967 57.7496 41.68C56.2763 38.8633 55.5396 35.6567 55.5396 32.06ZM85.6996 32.125C85.6996 29.4383 85.158 27.0983 84.0746 25.105C82.9913 23.1117 81.518 21.595 79.6546 20.555C77.8346 19.4717 75.8196 18.93 73.6096 18.93C71.3996 18.93 69.3846 19.45 67.5646 20.49C65.7446 21.53 64.293 23.0467 63.2096 25.04C62.1263 27.0333 61.5846 29.3733 61.5846 32.06C61.5846 34.79 62.1263 37.1733 63.2096 39.21C64.293 41.2033 65.7446 42.7417 67.5646 43.825C69.3846 44.865 71.3996 45.385 73.6096 45.385C75.8196 45.385 77.8346 44.865 79.6546 43.825C81.518 42.7417 82.9913 41.2033 84.0746 39.21C85.158 37.1733 85.6996 34.8117 85.6996 32.125ZM119.03 13.73C123.364 13.73 126.874 15.0517 129.56 17.695C132.247 20.295 133.59 24.065 133.59 29.005V50H127.74V29.85C127.74 26.2967 126.852 23.5883 125.075 21.725C123.299 19.8183 120.872 18.865 117.795 18.865C114.675 18.865 112.184 19.84 110.32 21.79C108.5 23.74 107.59 26.5783 107.59 30.305V50H101.675V14.38H107.59V19.45C108.76 17.63 110.342 16.2217 112.335 15.225C114.372 14.2283 116.604 13.73 119.03 13.73ZM141.043 32.06C141.043 28.42 141.779 25.235 143.253 22.505C144.726 19.7317 146.741 17.5867 149.298 16.07C151.898 14.5533 154.801 13.795 158.008 13.795C160.781 13.795 163.359 14.445 165.743 15.745C168.126 17.0017 169.946 18.67 171.203 20.75V1.9H177.183V50H171.203V43.305C170.033 45.4283 168.299 47.1833 166.003 48.57C163.706 49.9133 161.019 50.585 157.943 50.585C154.779 50.585 151.898 49.805 149.298 48.245C146.741 46.685 144.726 44.4967 143.253 41.68C141.779 38.8633 141.043 35.6567 141.043 32.06ZM171.203 32.125C171.203 29.4383 170.661 27.0983 169.578 25.105C168.494 23.1117 167.021 21.595 165.158 20.555C163.338 19.4717 161.323 18.93 159.113 18.93C156.903 18.93 154.888 19.45 153.068 20.49C151.248 21.53 149.796 23.0467 148.713 25.04C147.629 27.0333 147.088 29.3733 147.088 32.06C147.088 34.79 147.629 37.1733 148.713 39.21C149.796 41.2033 151.248 42.7417 153.068 43.825C154.888 44.865 156.903 45.385 159.113 45.385C161.323 45.385 163.338 44.865 165.158 43.825C167.021 42.7417 168.494 41.2033 169.578 39.21C170.661 37.1733 171.203 34.8117 171.203 32.125ZM219.678 30.825C219.678 31.9517 219.613 33.1433 219.483 34.4H191.013C191.23 37.91 192.422 40.6617 194.588 42.655C196.798 44.605 199.463 45.58 202.583 45.58C205.14 45.58 207.263 44.995 208.953 43.825C210.687 42.6117 211.9 41.0083 212.593 39.015H218.963C218.01 42.4383 216.103 45.2333 213.243 47.4C210.383 49.5233 206.83 50.585 202.583 50.585C199.203 50.585 196.17 49.8267 193.483 48.31C190.84 46.7933 188.76 44.6483 187.243 41.875C185.727 39.0583 184.968 35.8083 184.968 32.125C184.968 28.4417 185.705 25.2133 187.178 22.44C188.652 19.6667 190.71 17.5433 193.353 16.07C196.04 14.5533 199.117 13.795 202.583 13.795C205.963 13.795 208.953 14.5317 211.553 16.005C214.153 17.4783 216.147 19.515 217.533 22.115C218.963 24.6717 219.678 27.575 219.678 30.825ZM213.568 29.59C213.568 27.3367 213.07 25.4083 212.073 23.805C211.077 22.1583 209.712 20.9233 207.978 20.1C206.288 19.2333 204.403 18.8 202.323 18.8C199.333 18.8 196.777 19.7533 194.653 21.66C192.573 23.5667 191.382 26.21 191.078 29.59H213.568ZM233.401 20.165C234.441 18.1283 235.914 16.5467 237.821 15.42C239.771 14.2933 242.133 13.73 244.906 13.73V19.84H243.346C236.716 19.84 233.401 23.4367 233.401 30.63V50H227.486V14.38H233.401V20.165ZM258.949 19.255V40.25C258.949 41.9833 259.317 43.2183 260.054 43.955C260.791 44.6483 262.069 44.995 263.889 44.995H268.244V50H262.914C259.621 50 257.151 49.2417 255.504 47.725C253.857 46.2083 253.034 43.7167 253.034 40.25V19.255H248.419V14.38H253.034V5.41H258.949V14.38H268.244V19.255H258.949ZM281.326 20.165C282.366 18.1283 283.839 16.5467 285.746 15.42C287.696 14.2933 290.057 13.73 292.831 13.73V19.84H291.271C284.641 19.84 281.326 23.4367 281.326 30.63V50H275.411V14.38H281.326V20.165ZM302.714 8.595C301.587 8.595 300.634 8.205 299.854 7.425C299.074 6.645 298.684 5.69166 298.684 4.565C298.684 3.43833 299.074 2.485 299.854 1.705C300.634 0.924998 301.587 0.534998 302.714 0.534998C303.797 0.534998 304.707 0.924998 305.444 1.705C306.224 2.485 306.614 3.43833 306.614 4.565C306.614 5.69166 306.224 6.645 305.444 7.425C304.707 8.205 303.797 8.595 302.714 8.595ZM305.574 14.38V50H299.659V14.38H305.574ZM321.57 20.945C322.74 18.9083 324.473 17.2183 326.77 15.875C329.11 14.4883 331.818 13.795 334.895 13.795C338.058 13.795 340.918 14.5533 343.475 16.07C346.075 17.5867 348.112 19.7317 349.585 22.505C351.058 25.235 351.795 28.42 351.795 32.06C351.795 35.6567 351.058 38.8633 349.585 41.68C348.112 44.4967 346.075 46.685 343.475 48.245C340.918 49.805 338.058 50.585 334.895 50.585C331.862 50.585 329.175 49.9133 326.835 48.57C324.538 47.1833 322.783 45.4717 321.57 43.435V66.9H315.655V14.38H321.57V20.945ZM345.75 32.06C345.75 29.3733 345.208 27.0333 344.125 25.04C343.042 23.0467 341.568 21.53 339.705 20.49C337.885 19.45 335.87 18.93 333.66 18.93C331.493 18.93 329.478 19.4717 327.615 20.555C325.795 21.595 324.322 23.1333 323.195 25.17C322.112 27.1633 321.57 29.4817 321.57 32.125C321.57 34.8117 322.112 37.1733 323.195 39.21C324.322 41.2033 325.795 42.7417 327.615 43.825C329.478 44.865 331.493 45.385 333.66 45.385C335.87 45.385 337.885 44.865 339.705 43.825C341.568 42.7417 343.042 41.2033 344.125 39.21C345.208 37.1733 345.75 34.79 345.75 32.06Z" fill="black"/>
</svg>
