<svg width="209" height="198" viewBox="0 0 209 198" fill="none" xmlns="http://www.w3.org/2000/svg">
<path fill-rule="evenodd" clip-rule="evenodd" d="M21.2925 8.07413L1 8.05825L51.29 196L104.227 84.8326L156.281 196L208.336 8.05825L189.808 8.07413L151.87 143.945L114.814 64.5401L129.813 32.778C129.813 32.778 120.133 0.177918 104.227 1.01588C88.9475 1.82085 81.2876 32.778 81.2876 32.778L95.4041 64.5401L56.5837 143.945L21.2925 8.07413ZM105.109 43.3654L98.9332 31.0134C98.9332 31.0134 100.332 20.1179 105.109 20.4261C109.722 20.7237 110.403 31.0134 110.403 31.0134L105.109 43.3654Z" fill="black"/>
<path d="M1 8.05825L1.00039 7.55825L0.348481 7.55774L0.516993 8.18749L1 8.05825ZM21.2925 8.07413L21.7764 7.94843L21.6793 7.57443L21.2929 7.57413L21.2925 8.07413ZM51.29 196L50.807 196.129L51.1579 197.44L51.7415 196.215L51.29 196ZM104.227 84.8326L104.68 84.6206L104.231 83.6616L103.775 84.6176L104.227 84.8326ZM156.281 196L155.829 196.212L156.402 197.437L156.763 196.133L156.281 196ZM208.336 8.05825L208.818 8.19171L208.994 7.55768L208.336 7.55825L208.336 8.05825ZM189.808 8.07413L189.808 7.57413L189.429 7.57446L189.327 7.93966L189.808 8.07413ZM151.87 143.945L151.417 144.157L151.988 145.381L152.352 144.08L151.87 143.945ZM114.814 64.5401L114.362 64.3266L114.262 64.5389L114.361 64.7516L114.814 64.5401ZM129.813 32.778L130.265 32.9915L130.347 32.8188L130.292 32.6357L129.813 32.778ZM104.227 1.01588L104.201 0.516574L104.227 1.01588ZM81.2876 32.778L80.8022 32.6579L80.761 32.8244L80.8307 32.9811L81.2876 32.778ZM95.4041 64.5401L95.8533 64.7597L95.9557 64.5502L95.861 64.337L95.4041 64.5401ZM56.5837 143.945L56.0998 144.071L56.4394 145.379L57.0329 144.165L56.5837 143.945ZM98.9332 31.0134L98.4373 30.9497L98.4179 31.1008L98.486 31.237L98.9332 31.0134ZM105.109 43.3654L104.662 43.589L105.144 44.5532L105.569 43.5623L105.109 43.3654ZM105.109 20.4261L105.141 19.9271L105.141 19.9271L105.109 20.4261ZM110.403 31.0134L110.862 31.2104L110.91 31.1001L110.902 30.9804L110.403 31.0134ZM0.999609 8.55825L21.2921 8.57413L21.2929 7.57413L1.00039 7.55825L0.999609 8.55825ZM51.773 195.871L1.48301 7.929L0.516993 8.18749L50.807 196.129L51.773 195.871ZM103.775 84.6176L50.8386 195.785L51.7415 196.215L104.678 85.0475L103.775 84.6176ZM156.734 195.788L104.68 84.6206L103.774 85.0446L155.829 196.212L156.734 195.788ZM207.854 7.92479L155.8 195.867L156.763 196.133L208.818 8.19171L207.854 7.92479ZM189.809 8.57413L208.336 8.55825L208.336 7.55825L189.808 7.57413L189.809 8.57413ZM152.352 144.08L190.29 8.2086L189.327 7.93966L151.388 143.811L152.352 144.08ZM114.361 64.7516L151.417 144.157L152.323 143.734L115.267 64.3287L114.361 64.7516ZM129.361 32.5645L114.362 64.3266L115.266 64.7536L130.265 32.9915L129.361 32.5645ZM104.253 1.51519C108.044 1.3155 111.504 3.10355 114.594 5.99051C117.683 8.87761 120.354 12.8225 122.546 16.823C124.736 20.819 126.434 24.8451 127.585 27.8749C128.16 29.389 128.598 30.6525 128.892 31.5366C129.038 31.9786 129.149 32.3256 129.223 32.5617C129.26 32.6797 129.288 32.7699 129.307 32.8303C129.316 32.8606 129.323 32.8834 129.327 32.8984C129.329 32.906 129.331 32.9116 129.332 32.9153C129.333 32.9171 129.333 32.9184 129.333 32.9193C129.334 32.9197 129.334 32.92 129.334 32.9202C129.334 32.9203 129.334 32.9203 129.813 32.778C130.292 32.6357 130.292 32.6354 130.292 32.6351C130.292 32.6348 130.292 32.6343 130.292 32.6338C130.291 32.6326 130.291 32.631 130.29 32.6289C130.289 32.6246 130.287 32.6184 130.285 32.6103C130.28 32.5941 130.273 32.5701 130.263 32.5387C130.244 32.4758 130.215 32.3831 130.178 32.2625C130.102 32.0214 129.989 31.6689 129.84 31.2211C129.543 30.3257 129.1 29.0488 128.519 27.5198C127.358 24.4632 125.642 20.3917 123.423 16.3424C121.207 12.2976 118.476 8.24963 115.276 5.25989C112.077 2.27001 108.363 0.297279 104.201 0.516574L104.253 1.51519ZM81.2876 32.778C81.7729 32.8981 81.7729 32.8981 81.773 32.898C81.773 32.8978 81.7731 32.8975 81.7732 32.8971C81.7734 32.8963 81.7737 32.8951 81.7741 32.8933C81.775 32.8899 81.7763 32.8846 81.7781 32.8774C81.7817 32.8631 81.7872 32.8415 81.7945 32.8128C81.8091 32.7555 81.8312 32.6698 81.8608 32.5576C81.92 32.3333 82.0089 32.0031 82.1278 31.582C82.3654 30.7398 82.7223 29.5341 83.1982 28.0843C84.1506 25.1832 85.5775 21.3111 87.4768 17.418C89.3781 13.5209 91.7416 9.62627 94.559 6.66282C97.3771 3.69861 100.609 1.7072 104.253 1.51519L104.201 0.516574C100.206 0.727046 96.7497 2.90714 93.8342 5.9738C90.918 9.0412 88.5017 13.0368 86.5781 16.9796C84.6525 20.9264 83.2095 24.8439 82.2481 27.7724C81.7672 29.2374 81.4063 30.4566 81.1653 31.3105C81.0449 31.7374 80.9544 32.0731 80.8939 32.3027C80.8636 32.4174 80.8408 32.5057 80.8256 32.5655C80.8179 32.5954 80.8122 32.6182 80.8083 32.6337C80.8063 32.6414 80.8048 32.6473 80.8038 32.6514C80.8033 32.6534 80.8029 32.655 80.8027 32.6561C80.8025 32.6566 80.8024 32.6571 80.8024 32.6573C80.8023 32.6577 80.8022 32.6579 81.2876 32.778ZM95.861 64.337L81.7445 32.5749L80.8307 32.9811L94.9472 64.7432L95.861 64.337ZM57.0329 144.165L95.8533 64.7597L94.9549 64.3205L56.1345 143.726L57.0329 144.165ZM20.8085 8.19983L56.0998 144.071L57.0676 143.82L21.7764 7.94843L20.8085 8.19983ZM98.486 31.237L104.662 43.589L105.556 43.1418L99.3804 30.7898L98.486 31.237ZM105.141 19.9271C103.727 19.8359 102.603 20.5851 101.743 21.6331C100.886 22.6767 100.24 24.0727 99.7584 25.4379C99.2746 26.8099 98.9449 28.1865 98.7364 29.2166C98.6319 29.7326 98.5574 30.1638 98.5089 30.4668C98.4847 30.6184 98.4669 30.738 98.4551 30.8203C98.4492 30.8614 98.4448 30.8932 98.4419 30.915C98.4404 30.9259 98.4393 30.9343 98.4385 30.9401C98.4381 30.9431 98.4378 30.9453 98.4376 30.9469C98.4375 30.9477 98.4374 30.9484 98.4374 30.9488C98.4374 30.9491 98.4373 30.9493 98.4373 30.9494C98.4373 30.9496 98.4373 30.9497 98.9332 31.0134C99.4291 31.0771 99.4291 31.0772 99.4291 31.0772C99.4291 31.0772 99.4291 31.0771 99.4291 31.0771C99.4292 31.0769 99.4292 31.0765 99.4293 31.076C99.4294 31.075 99.4296 31.0733 99.4299 31.0709C99.4305 31.0663 99.4315 31.0591 99.4328 31.0494C99.4355 31.0299 99.4395 31.0006 99.445 30.962C99.4561 30.8848 99.473 30.7707 99.4964 30.6249C99.543 30.3333 99.6152 29.9157 99.7165 29.415C99.9196 28.4119 100.238 27.0838 100.701 25.7705C101.167 24.4503 101.766 23.1802 102.515 22.2676C103.261 21.3593 104.103 20.8622 105.077 20.925L105.141 19.9271ZM110.403 31.0134C110.902 30.9804 110.902 30.9803 110.902 30.9801C110.902 30.98 110.902 30.9798 110.902 30.9795C110.902 30.9791 110.902 30.9785 110.902 30.9777C110.901 30.9762 110.901 30.974 110.901 30.9712C110.901 30.9657 110.9 30.9577 110.899 30.9473C110.898 30.9266 110.896 30.8965 110.892 30.8574C110.886 30.7794 110.876 30.6659 110.862 30.522C110.834 30.2342 110.789 29.8241 110.72 29.3316C110.582 28.3484 110.349 27.0284 109.967 25.6938C109.586 24.3653 109.05 22.9897 108.291 21.917C107.529 20.8417 106.501 20.0148 105.141 19.9271L105.077 20.925C106.024 20.9861 106.811 21.5571 107.474 22.4948C108.14 23.4351 108.639 24.6878 109.005 25.9689C109.37 27.244 109.595 28.515 109.729 29.4704C109.796 29.9472 109.84 30.3434 109.867 30.6195C109.88 30.7575 109.89 30.8653 109.896 30.9382C109.899 30.9746 109.901 31.0022 109.902 31.0205C109.903 31.0296 109.903 31.0364 109.904 31.0407C109.904 31.0429 109.904 31.0445 109.904 31.0454C109.904 31.0459 109.904 31.0462 109.904 31.0464C109.904 31.0465 109.904 31.0465 109.904 31.0465C109.904 31.0465 109.904 31.0464 110.403 31.0134ZM105.569 43.5623L110.862 31.2104L109.943 30.8165L104.65 43.1684L105.569 43.5623Z" fill="black"/>
</svg>
